PathFileType	4	(X/Y/Z)	Walk6.trc
DataRate	CameraRate	NumFrames	NumMarkers	Units	OrigDataRate	OrigDataStartFrame	OrigNumFrames
200.000000	200.000000	4	61	mm	200.000000	344	449
Frame#	Times		LFHD		RFHD		CLAV		STRN		LASI		RASI		RACR1		RUA1		RFA1		RWRU		RCAR		LACR1		LUA1		LFA1		LWRU		LCAR		RTH3		RTH2		RTH4		RTB3		RTB4		LTH1		LTH3		LTH2		LTH4		LLFC		LTB1		LTB2		LTB4		RTH1		RTB1		RMT5		RMFC		RToe		RMT1		RMMAL		LElbow		RTB2		LBHD		RLFC		LWRR		RLMAL		RCAL		RWRR		RElbow		T10		RBack		RPSI		RBHD		LTB3		LMFC		LPSI		LToe		LLMAL		C7		RElbowM		LCAL		LElbowM		LMT5		LMT1		LMMAL
			X1	Y1	Z1	X2	Y2	Z2	X3	Y3	Z3	X4	Y4	Z4	X5	Y5	Z5	X6	Y6	Z6	X7	Y7	Z7	X8	Y8	Z8	X9	Y9	Z9	X10	Y10	Z10	X11	Y11	Z11	X12	Y12	Z12	X13	Y13	Z13	X14	Y14	Z14	X15	Y15	Z15	X16	Y16	Z16	X17	Y17	Z17	X18	Y18	Z18	X19	Y19	Z19	X20	Y20	Z20	X21	Y21	Z21	X22	Y22	Z22	X23	Y23	Z23	X24	Y24	Z24	X25	Y25	Z25	X26	Y26	Z26	X27	Y27	Z27	X28	Y28	Z28	X29	Y29	Z29	X30	Y30	Z30	X31	Y31	Z31	X32	Y32	Z32	X33	Y33	Z33	X34	Y34	Z34	X35	Y35	Z35	X36	Y36	Z36	X37	Y37	Z37	X38	Y38	Z38	X39	Y39	Z39	X40	Y40	Z40	X41	Y41	Z41	X42	Y42	Z42	X43	Y43	Z43	X44	Y44	Z44	X45	Y45	Z45	X46	Y46	Z46	X47	Y47	Z47	X48	Y48	Z48	X49	Y49	Z49	X50	Y50	Z50	X51	Y51	Z51	X52	Y52	Z52	X53	Y53	Z53	X54	Y54	Z54	X55	Y55	Z55	X56	Y56	Z56	X57	Y57	Z57	X58	Y58	Z58	X59	Y59	Z59	X60	Y60	Z60	X61	Y61	Z61

344	1.72	565.67	1577.3	-15.771	564.2	1583.6	83.564	527.35	1308.4	41.913	548.98	1173.6	46.121	503.5	899.43	-65.498	507.28	915.36	184.71	466.02	1346.9	210.04	471.24	1177.8	266.72	570.61	911.84	307.74	663.67	837.95	259.01	687.84	770.44	301.07	444.3	1353.4	-109.66	388.89	1186.2	-162.44	292.09	912.93	-194.34	306.2	786.92	-196.99	247.14	734.96	-213.88	378.48	589.74	220.37	453.19	661.63	211.52	401.35	668.52	238.41	250.55	177.58	137.13	285.45	255.45	150.49	487.01	733.74	-136.01	547.71	574.63	-108.81	568.84	678.42	-105.05	516.85	653.25	-124.04	601.99	452.5	-84.421	668.65	372.02	-23.404	665.97	281.97	-79.655	681.93	286.68	-20.583	427.59	749.05	260.38	318.06	335.9	160.34	251.27	26.493	160.11	297.77	449.6	64.89	343.29	24.009	112.76	289.79	31.784	76.64	183.59	108.94	65.96	324	1042.4	-166.99	239.45	270.75	189.06	421.26	1515.6	-36.314	331.37	444.44	192.46	243.99	805.3	-173.11	160.68	92.426	144.71	107.31	79.917	97.909	619.49	802.95	297.38	477.95	1010.8	302.02	336.73	1199.3	57.54	341.9	1285.8	128.19	332.15	953.1	106.29	421.93	1531	107.55	700.45	204.19	-16.585	589.43	435.33	47.894	328.97	950.97	6.3791	876.96	99.191	-28.871	678.29	81.094	-59.07	414.04	1409.7	45.003	439.75	1002.3	234.21	638.04	35.024	-13.132	325.27	1025.9	-94.439	794.42	67.886	-68.977	824.82	89.021	3.894	689.9	102.98	20.323
345	1.725	572.75	1576.5	-16.249	571.26	1582.8	83.09	534.65	1307.5	41.446	556.33	1172.7	45.707	511.5	898.39	-65.682	514.3	914.61	184.64	472.94	1346	209.43	478.31	1176.9	266.02	578.4	911.53	306.79	672.07	838.57	257.9	696.74	771.08	299.73	451.92	1352.5	-110.33	395.9	1185.7	-163.2	297.89	912.82	-195.19	311.36	786.75	-198.1	251.92	734.98	-214.65	384.12	589.49	220.25	459.13	661.02	211.47	407.3	668.16	238.23	252.47	178.1	137.29	288.24	255.6	150.57	494.7	732.83	-136.56	554.57	573.38	-109.33	576.07	677.1	-105.02	524.14	652.18	-124.62	608.82	451.27	-84.586	676.48	371.72	-23.458	675.76	281.75	-80.07	691.31	286.56	-20.889	433.86	748.61	260.16	321.74	335.72	160.4	251.41	26.634	160.15	303	449.57	64.78	343.3	23.978	112.63	289.87	31.732	76.658	184.65	110.2	66.258	330.47	1042	-167.73	242.36	271.46	189.08	428.39	1514.6	-36.8	336.18	444.25	192.4	249.34	805.38	-173.9	161.62	93.961	145.02	108.05	82.079	98.261	628.13	803.07	296.09	485.07	1009.9	301.33	344.02	1198.3	56.646	348.98	1284.9	127.34	339.46	952.16	105.2	429.07	1530	107.09	711.32	204.34	-17.072	595.35	433.46	47.64	336.67	950.03	5.2828	889.95	102.22	-28.752	691.66	80.881	-60.062	421.3	1408.8	44.304	446.75	1001.4	233.51	651.81	33.981	-14.314	331.72	1025.5	-95.23	808.09	69.532	-69.436	837.79	91.071	3.6405	702.39	102.8	19.48
346	1.73	579.84	1575.7	-16.722	578.34	1582	82.622	541.95	1306.6	40.947	563.72	1171.9	45.267	519.52	897.37	-65.884	521.4	913.85	184.54	479.86	1345	208.78	485.37	1176	265.29	586.11	911.19	305.84	680.35	839.1	256.81	705.48	771.64	298.44	459.54	1351.6	-111.03	403.01	1185.1	-164	303.91	912.66	-196.12	316.78	786.53	-199.23	257	734.93	-215.49	389.94	589.2	220.11	465.23	660.4	211.38	413.4	667.78	238.03	254.49	178.64	137.49	291.16	255.74	150.67	502.49	731.98	-137.08	561.57	572.22	-109.75	583.41	675.86	-104.96	531.54	651.19	-125.12	615.67	450.06	-84.731	684.15	371.29	-23.47	685.1	281.41	-80.393	700.28	286.31	-21.112	440.28	748.15	259.9	325.59	335.5	160.47	251.57	26.775	160.22	308.4	449.52	64.699	343.3	23.954	112.48	289.93	31.673	76.687	185.78	111.5	66.613	337.1	1041.6	-168.56	245.43	272.19	189.13	435.54	1513.7	-37.308	341.22	444.01	192.35	254.92	805.4	-174.8	162.65	95.56	145.39	108.87	84.332	98.698	636.62	803.13	294.82	492.15	1009	300.62	351.34	1197.4	55.715	356.07	1284	126.44	346.84	951.21	104.1	436.19	1529.1	106.61	721.56	204.33	-17.44	601.34	431.69	47.402	344.42	949.1	4.179	901.95	104.7	-28.512	704.06	80.609	-60.878	428.55	1407.9	43.571	453.75	1000.5	232.78	664.52	33.031	-15.318	338.25	1025.1	-96.1	820.72	70.824	-69.739	849.78	92.693	3.5241	714	102.54	18.798
347	1.735	586.94	1575	-17.189	585.41	1581.2	82.16	549.27	1305.7	40.414	571.12	1171.1	44.802	527.56	896.36	-66.109	528.59	913.08	184.39	486.77	1344.1	208.11	492.42	1175	264.52	593.74	910.81	304.89	688.51	839.53	255.74	714.07	772.11	297.18	467.17	1350.7	-111.77	410.24	1184.5	-164.86	310.17	912.44	-197.13	322.46	786.26	-200.39	262.38	734.8	-216.4	395.95	588.87	219.97	471.49	659.76	211.26	419.68	667.37	237.81	256.62	179.19	137.72	294.23	255.88	150.79	510.39	731.2	-137.56	568.69	571.16	-110.05	590.85	674.73	-104.85	539.06	650.27	-125.54	622.56	448.88	-84.856	691.67	370.72	-23.445	694.01	280.95	-80.62	708.85	285.91	-21.251	446.85	747.67	259.61	329.61	335.24	160.55	251.75	26.917	160.31	313.96	449.45	64.646	343.3	23.936	112.33	289.99	31.609	76.725	186.98	112.87	67.025	343.89	1041.2	-169.47	248.67	272.91	189.22	442.69	1512.8	-37.84	346.48	443.73	192.3	260.73	805.37	-175.81	163.77	97.229	145.84	109.77	86.688	99.218	644.99	803.14	293.59	499.2	1008.1	299.87	358.69	1196.5	54.752	363.16	1283	125.5	354.29	950.28	103.01	443.31	1528.1	106.11	731.16	204.15	-17.684	607.42	430.05	47.179	352.2	948.18	3.0733	912.96	106.56	-28.154	715.46	80.246	-61.502	435.8	1407	42.806	460.75	999.58	232.01	676.14	32.151	-16.131	344.89	1024.6	-97.047	832.28	71.707	-69.88	860.78	93.83	3.5478	724.69	102.16	18.288
